<?xml version="1.0" encoding="UTF-8" standalone="no"?>
<svg
   version="1.1"
   x="0px"
   y="0px"
   viewBox="0 0 100 125"
   enable-background="new 0 0 100 100"
   xml:space="preserve"
   id="svg2"
   sodipodi:docname="seaweed.svg"
   inkscape:version="1.4 (e7c3feb1, 2024-10-09)"
   xmlns:inkscape="http://www.inkscape.org/namespaces/inkscape"
   xmlns:sodipodi="http://sodipodi.sourceforge.net/DTD/sodipodi-0.dtd"
   xmlns="http://www.w3.org/2000/svg"
   xmlns:svg="http://www.w3.org/2000/svg"><defs
     id="defs2" /><sodipodi:namedview
     id="namedview2"
     pagecolor="#ffffff"
     bordercolor="#000000"
     borderopacity="0.25"
     inkscape:showpageshadow="2"
     inkscape:pageopacity="0.0"
     inkscape:pagecheckerboard="0"
     inkscape:deskcolor="#d1d1d1"
     inkscape:zoom="4.6878419"
     inkscape:cx="26.344745"
     inkscape:cy="90.873372"
     inkscape:window-width="1168"
     inkscape:window-height="767"
     inkscape:window-x="0"
     inkscape:window-y="44"
     inkscape:window-maximized="0"
     inkscape:current-layer="svg2" /><path
     fill-rule="evenodd"
     clip-rule="evenodd"
     d="M75.36,63.329c-4.494,2.205-5.901,7.49-8.338,8.232  c-6.695,2.039-7.998-4.923-4.768-9.641c1.636-2.39,11.611-4.19,15.082-5.71c2.602-1.14,2.915-3.911-0.629-4.584  c-1.939-0.369-6.06,3.874-6.943,4.316c-1.241,0.621,0.454-1.748,1.638-6.323c1.413-5.462-1.151-7.654-3.024-5.289  c-1.375,1.737-2.38,5.932-3.323,8.455c-0.704,1.882-1.384,2.459-3.118,3.323c-4.757,2.369-2.029-7.224,1.73-16.169  c1.236-2.942,3.577-6.321,5.301-8.879c1.82-2.701,2.338-3.589,4.818-5.673c1.626-1.367,3.212-2.85,3.984-4.583  c1.386-3.109,0.274-3.5-2.956-1.228c-4.106,4.863-5.37,7.588-5.408,5.715c-0.011-0.562-0.133-1.695,0.012-3.167  c0.294-3.006,1.864-4.772,1.655-7.874c-0.3-4.483-2.852-3.328-3.597,0.805c-0.457,2.535,1.136,5.527,0.215,6.947  c-1.1,1.695-1.886,0.535-2.985-0.135c-1.617-0.986-2.397,1.137-1.627,4.137c1.273,4.958-1.728,10.445-2.006,8.502  c-0.17-1.187,0.416-4.674-0.205-6.385c-0.839-2.314-2.146-0.249-2.39,1.198c-0.205,1.214-1.065,1.088-1.639,0.144  c-0.596-0.98-0.716-2.875-0.006-4.935c1.117-3.238,4.463-5.991,4.212-9.466c-0.2-2.788-1.794-3.055-3.807,0.857  c-2.078,8.203-3.075,9.054-3.634,4.708c-0.375-2.909,0.795-6.009-0.109-9.076c-0.616-2.09-2.788-1.542-2.906,1.218  c-0.012,0.285,0.271,4.24-1.235,1.539c-0.633-1.134-1.324-3.105-1.824-4.608c-1.336-4.018-4.868-2.472-1.477,2.687  c1.122,2.559,8.55,11.789,5.734,12.996c-0.508,0.218-1.546-1.923-2.498-2.392c-1.586-0.782-2.811,0.315-0.044,4.457  c2.765,4.473,6.766,7.326,7.66,9.529c0.569,1.402-0.143,9.819-3.325,8.818c-4.724-1.486,0.353-5.812-5.429-7.061  c-3.977-0.859-1.517,4.583,1.919,8.325c3.413,3.717,5.166,1.669,7.037,7.054c1.978,5.69-0.748,6.063-4.476,3.418  c-3.095-2.196-5.047-6.913-7.002-10.244c-4.603-9.436-6.464-6.829-12.314-2.884c-0.728,0.49-2.26-0.579-2.556-2.308  c-0.336-1.959-0.096-4.71,0.068-6.737c0.452-5.572-3.695-5.491-3.136,2.27c0.196,4.221,0.956,5.38-1.492,6.376  c-0.694,0.282-3.103-3.657-5.266-4.103c-3.678-0.759-2.09,4.47,1.971,5.642c2.687,0.775,6.225,2.508,6.003,4.322  c-0.162,1.323-2.785,1.964-4.902,2.518c-6.81,1.783-2.131,11.608,5.836,1.709c1.661-3.168,5.762-8.439,9.507-8.964  c1.295-0.182,1.932,1.32,3.146,3.784c1.53,3.105,1.432,5.233-0.503,4.659c-3.041-0.902-9.434-0.243-6.737,2.808  c1.291,1.461,3.142,1.281,5.001,1.212c3.566-0.134,6.961,1.684,10.28,2.911c4.294,1.587,4.643,1.788,6.368,7.253  c1.282,4.062,4.973,13.614,0.9,17.717c-1.184,1.193-2.918-0.314-3.623-1.205c-0.705-0.891-5.699-9.75-7.11-11.534  c-2.674-4.099-3.308-3.459,0.663-6.156c3.926-2.667,2.896-5.967-0.846-3.69c-5.012,3.051-3.48,6.551-8.994,5.37  c-1.35-1.082-4.298-3.527-6.877-3.524c-2.579,0.003-4.789,2.452-6.441,3.506c-5.912,5.03,0.26,4.854,3.776,2.242  c2.471-2.846,2.696-2.984,4.757-1.268c3.43,2.858,7.773,0.394,10.645,4.894c2.933,4.597,6.594,6.564,2.238,5.846  c-3.372-0.555-5.01-1.273-8.085-2.859c-1.08-0.557-2.217-0.927-3.382-0.64c-2.524,0.622-4.816,4.862,2.621,4.933  c7.267,0.068,16.178,5.191,12.898,11.194l16.734-0.001c0.439-2.635-1.387-13.054-0.861-14.886  c1.208-4.209,10.266-6.307,13.949-10.174C83.18,64.04,79.379,61.357,75.36,63.329z"
     id="path1"
     style="fill:#ffffff" /></svg>
